<svg width="0" height="0">

    <symbol id="logo" xmlns="http://www.w3.org/2000/svg" viewBox="0 0 91 33">
        <path d="M19.9974 2.62896L27.3741 15.3766C27.7764 16.0719 27.7764 16.9285 27.3741 17.6238L19.9974 30.3714C19.5951 31.0667 18.8516 31.495 18.0469 31.495H22.3698C23.1745 31.495 23.918 31.0667 24.3203 30.3714L31.697 17.6238C32.0993 16.9285 32.0993 16.0719 31.697 15.3766L24.3203 2.62896C23.918 1.93366 23.1744 1.50537 22.3698 1.50537H18.0469C18.8516 1.50537 19.5951 1.93366 19.9974 2.62896Z"
              fill="#39435A"/>
        <path d="M19.9974 2.62896L20.3261 3.19697C20.8848 3.20512 21.465 3.25091 22.0572 3.33777C23.2357 3.51074 24.3221 3.826 25.2503 4.23638L24.3201 2.62896C23.918 1.93366 23.1745 1.50537 22.3698 1.50537H18.0469C18.8516 1.50537 19.5951 1.93366 19.9974 2.62896Z"
              fill="#2C374C"/>
        <path d="M11.6771 2.62896L19.0538 15.3766C19.4561 16.0719 19.4561 16.9285 19.0538 17.6238L11.6771 30.3714C11.2748 31.0667 10.5313 31.495 9.72656 31.495H14.0495C14.8542 31.495 15.5977 31.0667 16 30.3714L23.3767 17.6238C23.779 16.9285 23.779 16.0719 23.3767 15.3766L16 2.62896C15.5976 1.93366 14.8541 1.50537 14.0494 1.50537H9.72656C10.5312 1.50537 11.2747 1.93366 11.6771 2.62896Z"
              fill="#39435A"/>
        <path d="M12.0014 30.3712L4.62463 17.6235C4.22234 16.9282 4.22234 16.0717 4.62463 15.3764L12.0014 2.62871C12.4036 1.93342 13.1472 1.50513 13.9519 1.50513H9.62897C8.82427 1.50513 8.08073 1.93342 7.67844 2.62871L0.30172 15.3764C-0.100573 16.0717 -0.100573 16.9282 0.30172 17.6235L7.67844 30.3712C8.08073 31.0665 8.82427 31.4948 9.62897 31.4948H13.9519C13.1472 31.4948 12.4036 31.0665 12.0014 30.3712Z"
              fill="#435F94"/>
        <path d="M16.2633 30.3712L8.8866 17.6236C8.4843 16.9283 8.4843 16.0717 8.8866 15.3764L16.2633 2.62874C16.6656 1.93366 17.4091 1.50537 18.2138 1.50537H13.8909C13.0862 1.50537 12.3427 1.93366 11.9404 2.62896L4.56368 15.3766C4.16139 16.0719 4.16139 16.9285 4.56368 17.6238L11.9404 30.3714C12.3427 31.0667 13.0862 31.495 13.8909 31.495H18.2138C17.4091 31.4948 16.6656 31.0665 16.2633 30.3712Z"
              fill="#377DFF"/>
        <path d="M20.6068 30.3712L13.2301 17.6236C12.8278 16.9283 12.8278 16.0717 13.2301 15.3764L20.6068 2.62874C21.0091 1.93366 21.7527 1.50537 22.5574 1.50537H18.2344C17.4297 1.50537 16.6862 1.93366 16.2839 2.62896L8.90719 15.3766C8.5049 16.0719 8.5049 16.9285 8.90719 17.6238L16.2839 30.3714C16.6862 31.0667 17.4297 31.495 18.2344 31.495H22.5574C21.7527 31.4948 21.0091 31.0665 20.6068 30.3712Z"
              fill="#37DBFF"/>
        <path d="M44.6468 6.398L41.6228 13.51C41.5574 13.6873 41.4548 13.8273 41.3148 13.93C41.1841 14.0233 41.0394 14.07 40.8808 14.07C40.6288 14.07 40.4421 14 40.3208 13.86C40.1994 13.72 40.1388 13.5473 40.1388 13.342C40.1388 13.258 40.1528 13.1693 40.1808 13.076L43.6668 4.704C43.7414 4.51733 43.8534 4.37267 44.0028 4.27C44.1614 4.16733 44.3294 4.12533 44.5068 4.144C44.6748 4.144 44.8288 4.19533 44.9688 4.298C45.1181 4.39133 45.2254 4.52667 45.2908 4.704L48.7348 12.908C48.7814 13.0293 48.8048 13.1413 48.8048 13.244C48.8048 13.496 48.7208 13.6967 48.5528 13.846C48.3941 13.9953 48.2168 14.07 48.0208 14.07C47.8528 14.07 47.6988 14.0187 47.5588 13.916C47.4281 13.8133 47.3254 13.6733 47.2508 13.496L44.2408 6.482L44.6468 6.398ZM42.0568 11.802L42.8268 10.192H46.6068L46.8728 11.802H42.0568ZM53.0982 6.37C53.4902 6.37 53.8495 6.43067 54.1762 6.552C54.5029 6.67333 54.7829 6.82733 55.0162 7.014C55.2589 7.20067 55.4455 7.392 55.5762 7.588C55.7162 7.77467 55.7862 7.93333 55.7862 8.064L55.4222 8.246V7.224C55.4222 6.98133 55.5015 6.78067 55.6602 6.622C55.8189 6.454 56.0195 6.37 56.2622 6.37C56.5049 6.37 56.7055 6.44933 56.8642 6.608C57.0229 6.76667 57.1022 6.972 57.1022 7.224V13.454C57.1022 14.266 56.9249 14.9147 56.5702 15.4C56.2249 15.8947 55.7675 16.2493 55.1982 16.464C54.6289 16.688 54.0175 16.8 53.3642 16.8C53.1775 16.8 52.9349 16.7767 52.6362 16.73C52.3375 16.6833 52.0529 16.6273 51.7822 16.562C51.5115 16.4967 51.3062 16.436 51.1662 16.38C50.8862 16.2587 50.6902 16.1047 50.5782 15.918C50.4755 15.7407 50.4569 15.5493 50.5222 15.344C50.6062 15.0733 50.7415 14.8867 50.9282 14.784C51.1149 14.6907 51.3109 14.6813 51.5162 14.756C51.6095 14.784 51.7635 14.84 51.9782 14.924C52.1929 15.008 52.4262 15.0827 52.6782 15.148C52.9395 15.2227 53.1682 15.26 53.3642 15.26C54.0642 15.26 54.5822 15.12 54.9182 14.84C55.2542 14.56 55.4222 14.1727 55.4222 13.678V12.46L55.5902 12.586C55.5902 12.7073 55.5249 12.8567 55.3942 13.034C55.2729 13.202 55.1002 13.37 54.8762 13.538C54.6615 13.706 54.4049 13.8507 54.1062 13.972C53.8075 14.084 53.4902 14.14 53.1542 14.14C52.4915 14.14 51.8942 13.9767 51.3622 13.65C50.8302 13.314 50.4102 12.8567 50.1022 12.278C49.7942 11.69 49.6402 11.018 49.6402 10.262C49.6402 9.49667 49.7942 8.82467 50.1022 8.246C50.4102 7.658 50.8255 7.20067 51.3482 6.874C51.8709 6.538 52.4542 6.37 53.0982 6.37ZM53.3642 7.91C52.9442 7.91 52.5755 8.01267 52.2582 8.218C51.9409 8.42333 51.6935 8.70333 51.5162 9.058C51.3389 9.41267 51.2502 9.814 51.2502 10.262C51.2502 10.7007 51.3389 11.0973 51.5162 11.452C51.6935 11.8067 51.9409 12.0867 52.2582 12.292C52.5755 12.4973 52.9442 12.6 53.3642 12.6C53.7935 12.6 54.1669 12.4973 54.4842 12.292C54.8015 12.0867 55.0489 11.8067 55.2262 11.452C55.4035 11.0973 55.4922 10.7007 55.4922 10.262C55.4922 9.814 55.4035 9.41267 55.2262 9.058C55.0489 8.70333 54.8015 8.42333 54.4842 8.218C54.1669 8.01267 53.7935 7.91 53.3642 7.91ZM62.3125 14.14C61.5191 14.14 60.8285 13.9767 60.2405 13.65C59.6618 13.314 59.2138 12.8613 58.8965 12.292C58.5885 11.7227 58.4345 11.0787 58.4345 10.36C58.4345 9.52 58.6025 8.806 58.9385 8.218C59.2838 7.62067 59.7318 7.16333 60.2825 6.846C60.8331 6.52867 61.4165 6.37 62.0325 6.37C62.5085 6.37 62.9565 6.468 63.3765 6.664C63.8058 6.86 64.1838 7.13067 64.5105 7.476C64.8371 7.812 65.0938 8.204 65.2805 8.652C65.4765 9.1 65.5745 9.576 65.5745 10.08C65.5652 10.304 65.4765 10.486 65.3085 10.626C65.1405 10.766 64.9445 10.836 64.7205 10.836H59.3725L58.9525 9.436H64.0905L63.7825 9.716V9.338C63.7638 9.06733 63.6658 8.82467 63.4885 8.61C63.3205 8.39533 63.1058 8.22733 62.8445 8.106C62.5925 7.97533 62.3218 7.91 62.0325 7.91C61.7525 7.91 61.4912 7.94733 61.2485 8.022C61.0058 8.09667 60.7958 8.22267 60.6185 8.4C60.4411 8.57733 60.3011 8.81533 60.1985 9.114C60.0958 9.41267 60.0445 9.79067 60.0445 10.248C60.0445 10.752 60.1471 11.1813 60.3525 11.536C60.5671 11.8813 60.8378 12.1473 61.1645 12.334C61.5005 12.5113 61.8552 12.6 62.2285 12.6C62.5738 12.6 62.8491 12.572 63.0545 12.516C63.2598 12.46 63.4232 12.3947 63.5445 12.32C63.6752 12.236 63.7918 12.166 63.8945 12.11C64.0625 12.026 64.2211 11.984 64.3705 11.984C64.5758 11.984 64.7438 12.054 64.8745 12.194C65.0145 12.334 65.0845 12.4973 65.0845 12.684C65.0845 12.936 64.9538 13.1647 64.6925 13.37C64.4498 13.5753 64.1092 13.7573 63.6705 13.916C63.2318 14.0653 62.7791 14.14 62.3125 14.14ZM71.1863 6.37C71.877 6.37 72.3996 6.51467 72.7543 6.804C73.1183 7.09333 73.3656 7.48067 73.4963 7.966C73.6363 8.442 73.7063 8.974 73.7063 9.562V13.146C73.7063 13.3887 73.627 13.594 73.4683 13.762C73.3096 13.9207 73.109 14 72.8663 14C72.6236 14 72.423 13.9207 72.2643 13.762C72.1056 13.594 72.0263 13.3887 72.0263 13.146V9.562C72.0263 9.254 71.9843 8.97867 71.9003 8.736C71.8256 8.484 71.6856 8.28333 71.4803 8.134C71.275 7.98467 70.981 7.91 70.5983 7.91C70.225 7.91 69.9076 7.98467 69.6463 8.134C69.3943 8.28333 69.1983 8.484 69.0583 8.736C68.9276 8.97867 68.8623 9.254 68.8623 9.562V13.146C68.8623 13.3887 68.783 13.594 68.6243 13.762C68.4656 13.9207 68.265 14 68.0223 14C67.7796 14 67.579 13.9207 67.4203 13.762C67.2616 13.594 67.1823 13.3887 67.1823 13.146V7.364C67.1823 7.12133 67.2616 6.92067 67.4203 6.762C67.579 6.594 67.7796 6.51 68.0223 6.51C68.265 6.51 68.4656 6.594 68.6243 6.762C68.783 6.92067 68.8623 7.12133 68.8623 7.364V7.966L68.6523 7.924C68.7363 7.76533 68.8576 7.59733 69.0163 7.42C69.175 7.23333 69.3616 7.06067 69.5763 6.902C69.791 6.74333 70.0336 6.61733 70.3043 6.524C70.575 6.42133 70.869 6.37 71.1863 6.37ZM78.9941 6.37C79.5261 6.37 79.9881 6.426 80.3801 6.538C80.7815 6.65 81.0895 6.80867 81.3041 7.014C81.5281 7.21 81.6401 7.448 81.6401 7.728C81.6401 7.91467 81.5841 8.092 81.4721 8.26C81.3601 8.41867 81.1968 8.498 80.9821 8.498C80.8328 8.498 80.7068 8.47933 80.6041 8.442C80.5108 8.39533 80.4268 8.33933 80.3521 8.274C80.2775 8.20867 80.1888 8.148 80.0861 8.092C79.9928 8.036 79.8481 7.994 79.6521 7.966C79.4655 7.92867 79.3255 7.91 79.2321 7.91C78.7561 7.91 78.3501 8.01267 78.0141 8.218C77.6875 8.42333 77.4355 8.70333 77.2581 9.058C77.0808 9.40333 76.9921 9.80467 76.9921 10.262C76.9921 10.71 77.0808 11.1113 77.2581 11.466C77.4448 11.8113 77.6968 12.0867 78.0141 12.292C78.3408 12.4973 78.7141 12.6 79.1341 12.6C79.3675 12.6 79.5681 12.586 79.7361 12.558C79.9041 12.53 80.0441 12.488 80.1561 12.432C80.2868 12.3573 80.4035 12.278 80.5061 12.194C80.6088 12.11 80.7628 12.068 80.9681 12.068C81.2108 12.068 81.3975 12.1473 81.5281 12.306C81.6588 12.4553 81.7241 12.642 81.7241 12.866C81.7241 13.0993 81.5935 13.314 81.3321 13.51C81.0708 13.6967 80.7255 13.8507 80.2961 13.972C79.8761 14.084 79.4188 14.14 78.9241 14.14C78.1868 14.14 77.5475 13.972 77.0061 13.636C76.4648 13.2907 76.0448 12.824 75.7461 12.236C75.4568 11.648 75.3121 10.99 75.3121 10.262C75.3121 9.49667 75.4661 8.82467 75.7741 8.246C76.0915 7.658 76.5255 7.20067 77.0761 6.874C77.6361 6.538 78.2755 6.37 78.9941 6.37ZM88.6336 6.51C88.8762 6.51 89.0769 6.594 89.2356 6.762C89.3942 6.92067 89.4736 7.12133 89.4736 7.364V13.314C89.4736 14.1727 89.3102 14.854 88.9836 15.358C88.6662 15.8713 88.2369 16.24 87.6956 16.464C87.1542 16.688 86.5476 16.8 85.8756 16.8C85.5769 16.8 85.2596 16.7767 84.9236 16.73C84.5876 16.6833 84.3122 16.6133 84.0976 16.52C83.8176 16.3987 83.6216 16.2447 83.5096 16.058C83.4069 15.8807 83.3882 15.6893 83.4536 15.484C83.5376 15.2133 83.6729 15.0267 83.8596 14.924C84.0462 14.8307 84.2422 14.8213 84.4476 14.896C84.5969 14.9427 84.7929 15.0127 85.0356 15.106C85.2782 15.2087 85.5582 15.26 85.8756 15.26C86.3049 15.26 86.6596 15.1993 86.9396 15.078C87.2289 14.966 87.4436 14.77 87.5836 14.49C87.7329 14.2193 87.8076 13.846 87.8076 13.37V12.432L88.1016 12.768C87.9429 13.076 87.7422 13.3327 87.4996 13.538C87.2662 13.734 86.9862 13.8833 86.6596 13.986C86.3329 14.0887 85.9596 14.14 85.5396 14.14C85.0449 14.14 84.6109 14.028 84.2376 13.804C83.8736 13.5707 83.5889 13.2533 83.3836 12.852C83.1782 12.4413 83.0756 11.9747 83.0756 11.452V7.364C83.0756 7.12133 83.1549 6.92067 83.3136 6.762C83.4722 6.594 83.6729 6.51 83.9156 6.51C84.1582 6.51 84.3589 6.594 84.5176 6.762C84.6762 6.92067 84.7556 7.12133 84.7556 7.364V10.948C84.7556 11.5547 84.8862 11.984 85.1476 12.236C85.4182 12.4787 85.7916 12.6 86.2676 12.6C86.5942 12.6 86.8696 12.5393 87.0936 12.418C87.3176 12.2873 87.4902 12.1007 87.6116 11.858C87.7329 11.606 87.7936 11.3027 87.7936 10.948V7.364C87.7936 7.12133 87.8729 6.92067 88.0316 6.762C88.1902 6.594 88.3909 6.51 88.6336 6.51Z"
              fill="#1D1D1D"/>
        <path d="M47.2588 22.224C47.3548 22.288 47.4108 22.372 47.4268 22.476C47.4428 22.572 47.4188 22.668 47.3548 22.764C47.2988 22.836 47.2268 22.876 47.1388 22.884C47.0508 22.892 46.9668 22.876 46.8868 22.836C46.5828 22.636 46.2548 22.48 45.9028 22.368C45.5588 22.256 45.1868 22.2 44.7868 22.2C44.2988 22.2 43.8428 22.288 43.4188 22.464C43.0028 22.632 42.6388 22.88 42.3268 23.208C42.0148 23.528 41.7708 23.908 41.5948 24.348C41.4268 24.788 41.3428 25.272 41.3428 25.8C41.3428 26.344 41.4308 26.84 41.6068 27.288C41.7828 27.728 42.0268 28.108 42.3388 28.428C42.6588 28.748 43.0268 28.992 43.4428 29.16C43.8588 29.328 44.3068 29.412 44.7868 29.412C45.1788 29.412 45.5468 29.356 45.8908 29.244C46.2428 29.132 46.5708 28.98 46.8748 28.788C46.9548 28.74 47.0388 28.724 47.1268 28.74C47.2228 28.748 47.2988 28.792 47.3548 28.872C47.4268 28.96 47.4508 29.056 47.4268 29.16C47.4108 29.256 47.3588 29.332 47.2708 29.388C47.0708 29.516 46.8348 29.636 46.5628 29.748C46.2908 29.86 46.0028 29.948 45.6988 30.012C45.3948 30.084 45.0908 30.12 44.7868 30.12C44.2108 30.12 43.6708 30.016 43.1668 29.808C42.6628 29.6 42.2148 29.308 41.8228 28.932C41.4308 28.548 41.1228 28.092 40.8988 27.564C40.6828 27.036 40.5748 26.448 40.5748 25.8C40.5748 25.176 40.6828 24.604 40.8988 24.084C41.1148 23.556 41.4148 23.1 41.7988 22.716C42.1828 22.332 42.6308 22.032 43.1428 21.816C43.6548 21.6 44.2028 21.492 44.7868 21.492C45.2428 21.492 45.6828 21.556 46.1068 21.684C46.5308 21.812 46.9148 21.992 47.2588 22.224ZM49.1466 30C49.0346 30 48.9466 29.964 48.8826 29.892C48.8186 29.82 48.7866 29.736 48.7866 29.64V24.264C48.7866 24.168 48.8186 24.084 48.8826 24.012C48.9546 23.94 49.0426 23.904 49.1466 23.904C49.2506 23.904 49.3346 23.94 49.3986 24.012C49.4706 24.084 49.5066 24.168 49.5066 24.264V26.064L49.3266 26.1C49.3506 25.82 49.4186 25.544 49.5306 25.272C49.6506 24.992 49.8106 24.736 50.0106 24.504C50.2106 24.272 50.4466 24.084 50.7186 23.94C50.9986 23.796 51.3106 23.724 51.6546 23.724C51.7986 23.724 51.9386 23.756 52.0746 23.82C52.2106 23.876 52.2786 23.972 52.2786 24.108C52.2786 24.228 52.2466 24.32 52.1826 24.384C52.1186 24.448 52.0426 24.48 51.9546 24.48C51.8826 24.48 51.8026 24.46 51.7146 24.42C51.6346 24.38 51.5266 24.36 51.3906 24.36C51.1666 24.36 50.9426 24.428 50.7186 24.564C50.4946 24.692 50.2906 24.868 50.1066 25.092C49.9226 25.316 49.7746 25.568 49.6626 25.848C49.5586 26.12 49.5066 26.396 49.5066 26.676V29.64C49.5066 29.736 49.4706 29.82 49.3986 29.892C49.3266 29.964 49.2426 30 49.1466 30ZM55.9063 30.12C55.2903 30.12 54.7463 29.988 54.2743 29.724C53.8023 29.46 53.4343 29.092 53.1703 28.62C52.9063 28.148 52.7743 27.596 52.7743 26.964C52.7743 26.284 52.9063 25.704 53.1703 25.224C53.4423 24.744 53.7903 24.376 54.2143 24.12C54.6463 23.856 55.1023 23.724 55.5823 23.724C55.9343 23.724 56.2743 23.788 56.6023 23.916C56.9383 24.036 57.2343 24.22 57.4903 24.468C57.7543 24.708 57.9623 25.004 58.1143 25.356C58.2743 25.708 58.3623 26.116 58.3783 26.58C58.3703 26.676 58.3303 26.76 58.2583 26.832C58.1863 26.896 58.1023 26.928 58.0063 26.928H53.1943L53.0503 26.28H57.7783L57.6223 26.424V26.184C57.5903 25.808 57.4703 25.488 57.2623 25.224C57.0543 24.96 56.8023 24.76 56.5063 24.624C56.2103 24.488 55.9023 24.42 55.5823 24.42C55.3423 24.42 55.0943 24.468 54.8383 24.564C54.5903 24.66 54.3623 24.812 54.1543 25.02C53.9543 25.22 53.7903 25.48 53.6623 25.8C53.5343 26.112 53.4703 26.484 53.4703 26.916C53.4703 27.388 53.5663 27.816 53.7583 28.2C53.9503 28.584 54.2263 28.888 54.5863 29.112C54.9543 29.336 55.3903 29.448 55.8943 29.448C56.1743 29.448 56.4263 29.408 56.6503 29.328C56.8743 29.248 57.0703 29.144 57.2383 29.016C57.4063 28.88 57.5463 28.74 57.6583 28.596C57.7463 28.524 57.8343 28.488 57.9223 28.488C58.0023 28.488 58.0703 28.52 58.1263 28.584C58.1903 28.648 58.2223 28.72 58.2223 28.8C58.2223 28.896 58.1823 28.98 58.1023 29.052C57.8623 29.34 57.5503 29.592 57.1663 29.808C56.7823 30.016 56.3623 30.12 55.9063 30.12ZM64.9943 23.868C65.0983 23.868 65.1823 23.904 65.2463 23.976C65.3183 24.048 65.3543 24.136 65.3543 24.24V29.64C65.3543 29.736 65.3183 29.82 65.2463 29.892C65.1743 29.964 65.0903 30 64.9943 30C64.8903 30 64.8023 29.964 64.7303 29.892C64.6663 29.82 64.6343 29.736 64.6343 29.64V28.212L64.8383 28.116C64.8383 28.34 64.7743 28.568 64.6463 28.8C64.5263 29.032 64.3583 29.248 64.1423 29.448C63.9263 29.648 63.6703 29.812 63.3743 29.94C63.0863 30.06 62.7743 30.12 62.4383 30.12C61.8943 30.12 61.4063 29.98 60.9743 29.7C60.5503 29.42 60.2143 29.036 59.9663 28.548C59.7263 28.06 59.6063 27.512 59.6063 26.904C59.6063 26.28 59.7303 25.732 59.9783 25.26C60.2263 24.78 60.5623 24.404 60.9863 24.132C61.4103 23.86 61.8903 23.724 62.4263 23.724C62.7703 23.724 63.0903 23.784 63.3863 23.904C63.6903 24.024 63.9543 24.188 64.1783 24.396C64.4023 24.604 64.5743 24.844 64.6943 25.116C64.8223 25.38 64.8863 25.656 64.8863 25.944L64.6343 25.764V24.24C64.6343 24.136 64.6663 24.048 64.7303 23.976C64.8023 23.904 64.8903 23.868 64.9943 23.868ZM62.4983 29.448C62.9223 29.448 63.2983 29.34 63.6263 29.124C63.9543 28.9 64.2103 28.596 64.3943 28.212C64.5863 27.82 64.6823 27.384 64.6823 26.904C64.6823 26.432 64.5863 26.008 64.3943 25.632C64.2103 25.256 63.9543 24.956 63.6263 24.732C63.2983 24.508 62.9223 24.396 62.4983 24.396C62.0823 24.396 61.7063 24.504 61.3703 24.72C61.0423 24.936 60.7823 25.232 60.5903 25.608C60.4063 25.984 60.3143 26.416 60.3143 26.904C60.3143 27.384 60.4063 27.82 60.5903 28.212C60.7823 28.596 61.0423 28.9 61.3703 29.124C61.6983 29.34 62.0743 29.448 62.4983 29.448ZM66.8477 23.892H69.6437C69.7397 23.892 69.8197 23.928 69.8837 24C69.9477 24.064 69.9797 24.144 69.9797 24.24C69.9797 24.328 69.9477 24.404 69.8837 24.468C69.8197 24.532 69.7397 24.564 69.6437 24.564H66.8477C66.7517 24.564 66.6677 24.532 66.5957 24.468C66.5317 24.396 66.4997 24.316 66.4997 24.228C66.4997 24.132 66.5317 24.052 66.5957 23.988C66.6677 23.924 66.7517 23.892 66.8477 23.892ZM68.0837 22.2C68.1877 22.2 68.2717 22.236 68.3357 22.308C68.4077 22.38 68.4437 22.464 68.4437 22.56V28.584C68.4437 28.808 68.4717 28.976 68.5277 29.088C68.5917 29.2 68.6717 29.276 68.7677 29.316C68.8637 29.348 68.9597 29.364 69.0557 29.364C69.1197 29.364 69.1757 29.356 69.2237 29.34C69.2797 29.316 69.3397 29.304 69.4037 29.304C69.4757 29.304 69.5357 29.332 69.5837 29.388C69.6397 29.444 69.6677 29.516 69.6677 29.604C69.6677 29.716 69.6037 29.812 69.4757 29.892C69.3477 29.964 69.1957 30 69.0197 30C68.9477 30 68.8397 29.996 68.6957 29.988C68.5517 29.972 68.4037 29.928 68.2517 29.856C68.0997 29.776 67.9717 29.64 67.8677 29.448C67.7717 29.256 67.7237 28.98 67.7237 28.62V22.56C67.7237 22.464 67.7557 22.38 67.8197 22.308C67.8917 22.236 67.9797 22.2 68.0837 22.2ZM72.0061 29.64C72.0061 29.736 71.9701 29.82 71.8981 29.892C71.8261 29.964 71.7421 30 71.6461 30C71.5421 30 71.4541 29.964 71.3821 29.892C71.3181 29.82 71.2861 29.736 71.2861 29.64V24.12C71.2861 24.024 71.3181 23.94 71.3821 23.868C71.4541 23.796 71.5421 23.76 71.6461 23.76C71.7501 23.76 71.8341 23.796 71.8981 23.868C71.9701 23.94 72.0061 24.024 72.0061 24.12V29.64ZM71.6461 22.956C71.4781 22.956 71.3501 22.92 71.2621 22.848C71.1821 22.768 71.1421 22.656 71.1421 22.512V22.392C71.1421 22.248 71.1861 22.14 71.2741 22.068C71.3701 21.988 71.4981 21.948 71.6581 21.948C71.8101 21.948 71.9261 21.988 72.0061 22.068C72.0941 22.14 72.1381 22.248 72.1381 22.392V22.512C72.1381 22.656 72.0941 22.768 72.0061 22.848C71.9261 22.92 71.8061 22.956 71.6461 22.956ZM73.7325 23.736C73.7965 23.736 73.8605 23.756 73.9245 23.796C73.9885 23.836 74.0365 23.896 74.0685 23.976L76.1685 28.968L76.0125 29.064L78.1605 23.976C78.2245 23.816 78.3405 23.74 78.5085 23.748C78.5885 23.748 78.6645 23.776 78.7365 23.832C78.8085 23.88 78.8445 23.952 78.8445 24.048C78.8445 24.096 78.8365 24.136 78.8205 24.168C78.8125 24.192 78.8045 24.22 78.7965 24.252L76.4445 29.772C76.3805 29.916 76.2725 29.992 76.1205 30C76.0485 30.008 75.9765 29.992 75.9045 29.952C75.8405 29.904 75.7925 29.844 75.7605 29.772L73.3965 24.252C73.3885 24.236 73.3805 24.212 73.3725 24.18C73.3645 24.148 73.3605 24.116 73.3605 24.084C73.3605 23.996 73.3925 23.916 73.4565 23.844C73.5205 23.772 73.6125 23.736 73.7325 23.736ZM82.9414 30.12C82.3254 30.12 81.7814 29.988 81.3094 29.724C80.8374 29.46 80.4694 29.092 80.2054 28.62C79.9414 28.148 79.8094 27.596 79.8094 26.964C79.8094 26.284 79.9414 25.704 80.2054 25.224C80.4774 24.744 80.8254 24.376 81.2494 24.12C81.6814 23.856 82.1374 23.724 82.6174 23.724C82.9694 23.724 83.3094 23.788 83.6374 23.916C83.9734 24.036 84.2694 24.22 84.5254 24.468C84.7894 24.708 84.9974 25.004 85.1494 25.356C85.3094 25.708 85.3974 26.116 85.4134 26.58C85.4054 26.676 85.3654 26.76 85.2934 26.832C85.2214 26.896 85.1374 26.928 85.0414 26.928H80.2294L80.0854 26.28H84.8134L84.6574 26.424V26.184C84.6254 25.808 84.5054 25.488 84.2974 25.224C84.0894 24.96 83.8374 24.76 83.5414 24.624C83.2454 24.488 82.9374 24.42 82.6174 24.42C82.3774 24.42 82.1294 24.468 81.8734 24.564C81.6254 24.66 81.3974 24.812 81.1894 25.02C80.9894 25.22 80.8254 25.48 80.6974 25.8C80.5694 26.112 80.5054 26.484 80.5054 26.916C80.5054 27.388 80.6014 27.816 80.7934 28.2C80.9854 28.584 81.2614 28.888 81.6214 29.112C81.9894 29.336 82.4254 29.448 82.9294 29.448C83.2094 29.448 83.4614 29.408 83.6854 29.328C83.9094 29.248 84.1054 29.144 84.2734 29.016C84.4414 28.88 84.5814 28.74 84.6934 28.596C84.7814 28.524 84.8694 28.488 84.9574 28.488C85.0374 28.488 85.1054 28.52 85.1614 28.584C85.2254 28.648 85.2574 28.72 85.2574 28.8C85.2574 28.896 85.2174 28.98 85.1374 29.052C84.8974 29.34 84.5854 29.592 84.2014 29.808C83.8174 30.016 83.3974 30.12 82.9414 30.12Z"
              fill="#1D1D1D"/>
    </symbol>

    <symbol xmlns="http://www.w3.org/2000/svg" viewBox="0 0 99 71" id="eclipses">
        <ellipse cx="2.5" cy="2.62469" rx="2.5" ry="2.62469"/>
        <ellipse cx="2.5" cy="46.4091" rx="2.5" ry="2.62469"/>
        <ellipse cx="39.8906" cy="2.62469" rx="2.5" ry="2.62469"/>
        <ellipse cx="39.8906" cy="46.4091" rx="2.5" ry="2.62469"/>
        <ellipse cx="77.2812" cy="2.62469" rx="2.5" ry="2.62469"/>
        <ellipse cx="77.2812" cy="46.4091" rx="2.5" ry="2.62469"/>
        <ellipse cx="2.5" cy="24.5168" rx="2.5" ry="2.62469"/>
        <ellipse cx="2.5" cy="68.301" rx="2.5" ry="2.62469"/>
        <ellipse cx="39.8906" cy="24.5168" rx="2.5" ry="2.62469"/>
        <ellipse cx="39.8906" cy="68.301" rx="2.5" ry="2.62469"/>
        <ellipse cx="77.2812" cy="24.5168" rx="2.5" ry="2.62469"/>
        <ellipse cx="77.2812" cy="68.301" rx="2.5" ry="2.62469"/>
        <ellipse cx="21.1953" cy="2.62469" rx="2.5" ry="2.62469"/>
        <ellipse cx="21.1953" cy="46.4091" rx="2.5" ry="2.62469"/>
        <ellipse cx="58.5859" cy="2.62469" rx="2.5" ry="2.62469"/>
        <ellipse cx="58.5859" cy="46.4091" rx="2.5" ry="2.62469"/>
        <ellipse cx="95.9766" cy="2.62469" rx="2.5" ry="2.62469"/>
        <ellipse cx="95.9766" cy="46.4091" rx="2.5" ry="2.62469"/>
        <ellipse cx="21.1953" cy="24.5168" rx="2.5" ry="2.62469"/>
        <ellipse cx="21.1953" cy="68.301" rx="2.5" ry="2.62469"/>
        <ellipse cx="58.5859" cy="24.5168" rx="2.5" ry="2.62469"/>
        <ellipse cx="58.5859" cy="68.301" rx="2.5" ry="2.62469"/>
        <ellipse cx="95.9766" cy="24.5168" rx="2.5" ry="2.62469"/>
        <ellipse cx="95.9766" cy="68.301" rx="2.5" ry="2.62469"/>
    </symbol>

    <symbol id="eclipses-6-bold" width="104" height="76" viewBox="0 0 104 76" xmlns="http://www.w3.org/2000/svg">
        <ellipse cx="4.79624" cy="5" rx="4.79624" ry="5"/>
        <ellipse cx="4.79624" cy="48.7843" rx="4.79624" ry="5"/>
        <ellipse cx="42.4515" cy="5" rx="4.79624" ry="5"/>
        <ellipse cx="42.4515" cy="48.7843" rx="4.79624" ry="5"/>
        <ellipse cx="80.1065" cy="5" rx="4.79624" ry="5"/>
        <ellipse cx="80.1065" cy="48.7843" rx="4.79624" ry="5"/>
        <ellipse cx="4.79624" cy="26.8921" rx="4.79624" ry="5"/>
        <ellipse cx="4.79624" cy="70.6764" rx="4.79624" ry="5"/>
        <ellipse cx="42.4515" cy="26.8921" rx="4.79624" ry="5"/>
        <ellipse cx="42.4515" cy="70.6764" rx="4.79624" ry="5"/>
        <ellipse cx="80.1065" cy="26.8921" rx="4.79624" ry="5"/>
        <ellipse cx="80.1065" cy="70.6764" rx="4.79624" ry="5"/>
        <ellipse cx="23.6239" cy="5" rx="4.79624" ry="5"/>
        <ellipse cx="23.6239" cy="48.7843" rx="4.79624" ry="5"/>
        <ellipse cx="61.2789" cy="5" rx="4.79624" ry="5"/>
        <ellipse cx="61.2789" cy="48.7843" rx="4.79624" ry="5"/>
        <ellipse cx="98.9342" cy="5" rx="4.79624" ry="5"/>
        <ellipse cx="98.9342" cy="48.7843" rx="4.79624" ry="5"/>
        <ellipse cx="23.6239" cy="26.8921" rx="4.79624" ry="5"/>
        <ellipse cx="23.6239" cy="70.6764" rx="4.79624" ry="5"/>
        <ellipse cx="61.2789" cy="26.8921" rx="4.79624" ry="5"/>
        <ellipse cx="61.2789" cy="70.6764" rx="4.79624" ry="5"/>
        <ellipse cx="98.9342" cy="26.8921" rx="4.79624" ry="5"/>
        <ellipse cx="98.9342" cy="70.6764" rx="4.79624" ry="5"/>
    </symbol>

    <symbol id="eclipses-12" xmlns="http://www.w3.org/2000/svg" viewBox="0 0 99 71">
        <ellipse cx="2.39812" cy="2.5" rx="2.39812" ry="2.5"/>
        <ellipse cx="2.39812" cy="46.2843" rx="2.39812" ry="2.5"/>
        <ellipse cx="40.0533" cy="2.5" rx="2.39812" ry="2.5"/>
        <ellipse cx="40.0533" cy="46.2843" rx="2.39812" ry="2.5"/>
        <ellipse cx="77.7084" cy="2.5" rx="2.39812" ry="2.5"/>
        <ellipse cx="77.7084" cy="46.2843" rx="2.39812" ry="2.5"/>
        <ellipse cx="2.39812" cy="24.3921" rx="2.39812" ry="2.5"/>
        <ellipse cx="2.39812" cy="68.1764" rx="2.39812" ry="2.5"/>
        <ellipse cx="40.0533" cy="24.3921" rx="2.39812" ry="2.5"/>
        <ellipse cx="40.0533" cy="68.1764" rx="2.39812" ry="2.5"/>
        <ellipse cx="77.7084" cy="24.3921" rx="2.39812" ry="2.5"/>
        <ellipse cx="77.7084" cy="68.1764" rx="2.39812" ry="2.5"/>
        <ellipse cx="21.2258" cy="2.5" rx="2.39812" ry="2.5"/>
        <ellipse cx="21.2258" cy="46.2843" rx="2.39812" ry="2.5"/>
        <ellipse cx="58.8809" cy="2.5" rx="2.39812" ry="2.5"/>
        <ellipse cx="58.8809" cy="46.2843" rx="2.39812" ry="2.5"/>
        <ellipse cx="96.5361" cy="2.5" rx="2.39812" ry="2.5"/>
        <ellipse cx="96.5361" cy="46.2843" rx="2.39812" ry="2.5"/>
        <ellipse cx="21.2258" cy="24.3921" rx="2.39812" ry="2.5"/>
        <ellipse cx="21.2258" cy="68.1764" rx="2.39812" ry="2.5"/>
        <ellipse cx="58.8809" cy="24.3921" rx="2.39812" ry="2.5"/>
        <ellipse cx="58.8809" cy="68.1764" rx="2.39812" ry="2.5"/>
        <ellipse cx="96.5361" cy="24.3921" rx="2.39812" ry="2.5"/>
        <ellipse cx="96.5361" cy="68.1764" rx="2.39812" ry="2.5"/>
        <ellipse cx="114.23" cy="2.62469" rx="2.5" ry="2.62469"/>
        <ellipse cx="114.23" cy="46.4091" rx="2.5" ry="2.62469"/>
        <ellipse cx="151.62" cy="2.62469" rx="2.5" ry="2.62469"/>
        <ellipse cx="151.62" cy="46.4091" rx="2.5" ry="2.62469"/>
        <ellipse cx="189.01" cy="2.62469" rx="2.5" ry="2.62469"/>
        <ellipse cx="189.01" cy="46.4091" rx="2.5" ry="2.62469"/>
        <ellipse cx="114.23" cy="24.5168" rx="2.5" ry="2.62469"/>
        <ellipse cx="114.23" cy="68.301" rx="2.5" ry="2.62469"/>
        <ellipse cx="151.62" cy="24.5168" rx="2.5" ry="2.62469"/>
        <ellipse cx="151.62" cy="68.301" rx="2.5" ry="2.62469"/>
        <ellipse cx="189.01" cy="24.5168" rx="2.5" ry="2.62469"/>
        <ellipse cx="189.01" cy="68.301" rx="2.5" ry="2.62469"/>
        <ellipse cx="132.926" cy="2.62469" rx="2.5" ry="2.62469"/>
        <ellipse cx="132.926" cy="46.4091" rx="2.5" ry="2.62469"/>
        <ellipse cx="170.316" cy="2.62469" rx="2.5" ry="2.62469"/>
        <ellipse cx="170.316" cy="46.4091" rx="2.5" ry="2.62469"/>
        <ellipse cx="207.706" cy="2.62469" rx="2.5" ry="2.62469"/>
        <ellipse cx="207.706" cy="46.4091" rx="2.5" ry="2.62469"/>
        <ellipse cx="132.926" cy="24.5168" rx="2.5" ry="2.62469"/>
        <ellipse cx="132.926" cy="68.301" rx="2.5" ry="2.62469"/>
        <ellipse cx="170.316" cy="24.5168" rx="2.5" ry="2.62469"/>
        <ellipse cx="170.316" cy="68.301" rx="2.5" ry="2.62469"/>
        <ellipse cx="207.706" cy="24.5168" rx="2.5" ry="2.62469"/>
        <ellipse cx="207.706" cy="68.301" rx="2.5" ry="2.62469"/>
    </symbol>


    <symbol id="footer-logo" xmlns="http://www.w3.org/2000/svg" viewBox="0 0 187 88">
        <rect fill="white" width="187" height="88" rx="20"/>
        <path d="M58.268 20.8741L70.5385 42.1316C71.2077 43.2911 71.2077 44.7195 70.5385 45.879L58.268 67.1365C57.5988 68.2959 56.362 69.0101 55.0234 69.0101H62.2142C63.5528 69.0101 64.7896 68.2959 65.4588 67.1365L77.7293 45.879C78.3985 44.7195 78.3985 43.2911 77.7293 42.1316L65.4588 20.8741C64.7896 19.7147 63.5526 19.0005 62.2142 19.0005H55.0234C56.362 19.0005 57.5988 19.7147 58.268 20.8741Z"
              fill="#39435A"/>
        <path d="M58.268 20.8741C58.607 21.4616 59.2305 21.8209 59.9073 21.8655C60.493 21.9042 61.09 21.9673 61.6943 22.0561C62.5211 22.1778 63.3207 22.3416 64.0847 22.5418C65.029 22.7892 65.9464 21.7196 65.4584 20.8741C64.7896 19.7147 63.5528 19.0005 62.2142 19.0005H55.0234C56.362 19.0005 57.5988 19.7147 58.268 20.8741Z"
              fill="#2C374C"/>
        <path d="M44.4242 20.8741L56.6948 42.1316C57.3639 43.2911 57.3639 44.7195 56.6948 45.879L44.4242 67.1365C43.755 68.2959 42.5182 69.0101 41.1797 69.0101H48.3705C49.709 69.0101 50.9458 68.2959 51.615 67.1365L63.8856 45.879C64.5547 44.7195 64.5547 43.2911 63.8856 42.1316L51.615 20.8741C50.9457 19.7147 49.7088 19.0005 48.3703 19.0005H41.1797C42.5181 19.0005 43.7549 19.7147 44.4242 20.8741Z"
              fill="#39435A"/>
        <path d="M44.9632 67.136L32.6927 45.8785C32.0235 44.719 32.0235 43.2906 32.6927 42.1312L44.9632 20.8737C45.6324 19.7142 46.8692 19 48.2077 19H41.017C39.6784 19 38.4416 19.7142 37.7724 20.8737L25.5019 42.1312C24.8327 43.2906 24.8327 44.719 25.5019 45.8785L37.7724 67.136C38.4416 68.2954 39.6784 69.0096 41.017 69.0096H48.2077C46.8692 69.0096 45.6324 68.2954 44.9632 67.136Z"
              fill="#435F94"/>
        <path d="M52.0531 67.1361L39.7825 45.8786C39.1133 44.7191 39.1133 43.2907 39.7825 42.1313L52.0531 20.8738C52.7222 19.7147 53.9591 19.0005 55.2976 19.0005H48.1068C46.7683 19.0005 45.5315 19.7147 44.8623 20.8741L32.5917 42.1316C31.9225 43.2911 31.9225 44.7195 32.5917 45.879L44.8623 67.1365C45.5315 68.2959 46.7683 69.0101 48.1068 69.0101H55.2976C53.9591 69.0098 52.7222 68.2956 52.0531 67.1361Z"
        />
        <path d="M59.2796 67.1361L47.0091 45.8786C46.3399 44.7191 46.3399 43.2907 47.0091 42.1313L59.2796 20.8738C59.9488 19.7147 61.1856 19.0005 62.5242 19.0005H55.3334C53.9948 19.0005 52.758 19.7147 52.0888 20.8741L39.8183 42.1316C39.1491 43.2911 39.1491 44.7195 39.8183 45.879L52.0888 67.1365C52.758 68.2959 53.9948 69.0101 55.3334 69.0101H62.5242C61.1856 69.0098 59.9488 68.2956 59.2796 67.1361Z"
              fill="#37DBFF"/>
        <path d="M95.64 28.14L91.32 38.3C91.2267 38.5533 91.08 38.7533 90.88 38.9C90.6933 39.0333 90.4867 39.1 90.26 39.1C89.9 39.1 89.6333 39 89.46 38.8C89.2867 38.6 89.2 38.3533 89.2 38.06C89.2 37.94 89.22 37.8133 89.26 37.68L94.24 25.72C94.3467 25.4533 94.5067 25.2467 94.72 25.1C94.9467 24.9533 95.1867 24.8933 95.44 24.92C95.68 24.92 95.9 24.9933 96.1 25.14C96.3133 25.2733 96.4667 25.4667 96.56 25.72L101.48 37.44C101.547 37.6133 101.58 37.7733 101.58 37.92C101.58 38.28 101.46 38.5667 101.22 38.78C100.993 38.9933 100.74 39.1 100.46 39.1C100.22 39.1 100 39.0267 99.8 38.88C99.6133 38.7333 99.4667 38.5333 99.36 38.28L95.06 28.26L95.64 28.14ZM91.94 35.86L93.04 33.56H98.44L98.82 35.86H91.94ZM107.713 28.1C108.273 28.1 108.787 28.1867 109.253 28.36C109.72 28.5333 110.12 28.7533 110.453 29.02C110.8 29.2867 111.067 29.56 111.253 29.84C111.453 30.1067 111.553 30.3333 111.553 30.52L111.033 30.78V29.32C111.033 28.9733 111.147 28.6867 111.373 28.46C111.6 28.22 111.887 28.1 112.233 28.1C112.58 28.1 112.867 28.2133 113.093 28.44C113.32 28.6667 113.433 28.96 113.433 29.32V38.22C113.433 39.38 113.18 40.3067 112.673 41C112.18 41.7067 111.527 42.2133 110.713 42.52C109.9 42.84 109.027 43 108.093 43C107.827 43 107.48 42.9667 107.053 42.9C106.627 42.8333 106.22 42.7533 105.833 42.66C105.447 42.5667 105.153 42.48 104.953 42.4C104.553 42.2267 104.273 42.0067 104.113 41.74C103.967 41.4867 103.94 41.2133 104.033 40.92C104.153 40.5333 104.347 40.2667 104.613 40.12C104.88 39.9867 105.16 39.9733 105.453 40.08C105.587 40.12 105.807 40.2 106.113 40.32C106.42 40.44 106.753 40.5467 107.113 40.64C107.487 40.7467 107.813 40.8 108.093 40.8C109.093 40.8 109.833 40.6 110.313 40.2C110.793 39.8 111.033 39.2467 111.033 38.54V36.8L111.273 36.98C111.273 37.1533 111.18 37.3667 110.993 37.62C110.82 37.86 110.573 38.1 110.253 38.34C109.947 38.58 109.58 38.7867 109.153 38.96C108.727 39.12 108.273 39.2 107.793 39.2C106.847 39.2 105.993 38.9667 105.233 38.5C104.473 38.02 103.873 37.3667 103.433 36.54C102.993 35.7 102.773 34.74 102.773 33.66C102.773 32.5667 102.993 31.6067 103.433 30.78C103.873 29.94 104.467 29.2867 105.213 28.82C105.96 28.34 106.793 28.1 107.713 28.1ZM108.093 30.3C107.493 30.3 106.967 30.4467 106.513 30.74C106.06 31.0333 105.707 31.4333 105.453 31.94C105.2 32.4467 105.073 33.02 105.073 33.66C105.073 34.2867 105.2 34.8533 105.453 35.36C105.707 35.8667 106.06 36.2667 106.513 36.56C106.967 36.8533 107.493 37 108.093 37C108.707 37 109.24 36.8533 109.693 36.56C110.147 36.2667 110.5 35.8667 110.753 35.36C111.007 34.8533 111.133 34.2867 111.133 33.66C111.133 33.02 111.007 32.4467 110.753 31.94C110.5 31.4333 110.147 31.0333 109.693 30.74C109.24 30.4467 108.707 30.3 108.093 30.3ZM120.877 39.2C119.743 39.2 118.757 38.9667 117.917 38.5C117.09 38.02 116.45 37.3733 115.997 36.56C115.557 35.7467 115.337 34.8267 115.337 33.8C115.337 32.6 115.577 31.58 116.057 30.74C116.55 29.8867 117.19 29.2333 117.977 28.78C118.763 28.3267 119.597 28.1 120.477 28.1C121.157 28.1 121.797 28.24 122.397 28.52C123.01 28.8 123.55 29.1867 124.017 29.68C124.483 30.16 124.85 30.72 125.117 31.36C125.397 32 125.537 32.68 125.537 33.4C125.523 33.72 125.397 33.98 125.157 34.18C124.917 34.38 124.637 34.48 124.317 34.48H116.677L116.077 32.48H123.417L122.977 32.88V32.34C122.95 31.9533 122.81 31.6067 122.557 31.3C122.317 30.9933 122.01 30.7533 121.637 30.58C121.277 30.3933 120.89 30.3 120.477 30.3C120.077 30.3 119.703 30.3533 119.357 30.46C119.01 30.5667 118.71 30.7467 118.457 31C118.203 31.2533 118.003 31.5933 117.857 32.02C117.71 32.4467 117.637 32.9867 117.637 33.64C117.637 34.36 117.783 34.9733 118.077 35.48C118.383 35.9733 118.77 36.3533 119.237 36.62C119.717 36.8733 120.223 37 120.757 37C121.25 37 121.643 36.96 121.937 36.88C122.23 36.8 122.463 36.7067 122.637 36.6C122.823 36.48 122.99 36.38 123.137 36.3C123.377 36.18 123.603 36.12 123.817 36.12C124.11 36.12 124.35 36.22 124.537 36.42C124.737 36.62 124.837 36.8533 124.837 37.12C124.837 37.48 124.65 37.8067 124.277 38.1C123.93 38.3933 123.443 38.6533 122.817 38.88C122.19 39.0933 121.543 39.2 120.877 39.2ZM133.554 28.1C134.54 28.1 135.287 28.3067 135.794 28.72C136.314 29.1333 136.667 29.6867 136.854 30.38C137.054 31.06 137.154 31.82 137.154 32.66V37.78C137.154 38.1267 137.04 38.42 136.814 38.66C136.587 38.8867 136.3 39 135.954 39C135.607 39 135.32 38.8867 135.094 38.66C134.867 38.42 134.754 38.1267 134.754 37.78V32.66C134.754 32.22 134.694 31.8267 134.574 31.48C134.467 31.12 134.267 30.8333 133.974 30.62C133.68 30.4067 133.26 30.3 132.714 30.3C132.18 30.3 131.727 30.4067 131.354 30.62C130.994 30.8333 130.714 31.12 130.514 31.48C130.327 31.8267 130.234 32.22 130.234 32.66V37.78C130.234 38.1267 130.12 38.42 129.894 38.66C129.667 38.8867 129.38 39 129.034 39C128.687 39 128.4 38.8867 128.174 38.66C127.947 38.42 127.834 38.1267 127.834 37.78V29.52C127.834 29.1733 127.947 28.8867 128.174 28.66C128.4 28.42 128.687 28.3 129.034 28.3C129.38 28.3 129.667 28.42 129.894 28.66C130.12 28.8867 130.234 29.1733 130.234 29.52V30.38L129.934 30.32C130.054 30.0933 130.227 29.8533 130.454 29.6C130.68 29.3333 130.947 29.0867 131.254 28.86C131.56 28.6333 131.907 28.4533 132.294 28.32C132.68 28.1733 133.1 28.1 133.554 28.1ZM144.708 28.1C145.468 28.1 146.128 28.18 146.688 28.34C147.261 28.5 147.701 28.7267 148.008 29.02C148.328 29.3 148.488 29.64 148.488 30.04C148.488 30.3067 148.408 30.56 148.248 30.8C148.088 31.0267 147.854 31.14 147.548 31.14C147.334 31.14 147.154 31.1133 147.008 31.06C146.874 30.9933 146.754 30.9133 146.648 30.82C146.541 30.7267 146.414 30.64 146.268 30.56C146.134 30.48 145.928 30.42 145.648 30.38C145.381 30.3267 145.181 30.3 145.048 30.3C144.368 30.3 143.788 30.4467 143.308 30.74C142.841 31.0333 142.481 31.4333 142.228 31.94C141.974 32.4333 141.848 33.0067 141.848 33.66C141.848 34.3 141.974 34.8733 142.228 35.38C142.494 35.8733 142.854 36.2667 143.308 36.56C143.774 36.8533 144.308 37 144.908 37C145.241 37 145.528 36.98 145.768 36.94C146.008 36.9 146.208 36.84 146.368 36.76C146.554 36.6533 146.721 36.54 146.868 36.42C147.014 36.3 147.234 36.24 147.528 36.24C147.874 36.24 148.141 36.3533 148.328 36.58C148.514 36.7933 148.608 37.06 148.608 37.38C148.608 37.7133 148.421 38.02 148.048 38.3C147.674 38.5667 147.181 38.7867 146.568 38.96C145.968 39.12 145.314 39.2 144.608 39.2C143.554 39.2 142.641 38.96 141.868 38.48C141.094 37.9867 140.494 37.32 140.068 36.48C139.654 35.64 139.448 34.7 139.448 33.66C139.448 32.5667 139.668 31.6067 140.108 30.78C140.561 29.94 141.181 29.2867 141.968 28.82C142.768 28.34 143.681 28.1 144.708 28.1ZM158.478 28.3C158.825 28.3 159.112 28.42 159.338 28.66C159.565 28.8867 159.678 29.1733 159.678 29.52V38.02C159.678 39.2467 159.445 40.22 158.978 40.94C158.525 41.6733 157.912 42.2 157.138 42.52C156.365 42.84 155.498 43 154.538 43C154.112 43 153.658 42.9667 153.178 42.9C152.698 42.8333 152.305 42.7333 151.998 42.6C151.598 42.4267 151.318 42.2067 151.158 41.94C151.012 41.6867 150.985 41.4133 151.078 41.12C151.198 40.7333 151.392 40.4667 151.658 40.32C151.925 40.1867 152.205 40.1733 152.498 40.28C152.712 40.3467 152.992 40.4467 153.338 40.58C153.685 40.7267 154.085 40.8 154.538 40.8C155.152 40.8 155.658 40.7133 156.058 40.54C156.472 40.38 156.778 40.1 156.978 39.7C157.192 39.3133 157.298 38.78 157.298 38.1V36.76L157.718 37.24C157.492 37.68 157.205 38.0467 156.858 38.34C156.525 38.62 156.125 38.8333 155.658 38.98C155.192 39.1267 154.658 39.2 154.058 39.2C153.352 39.2 152.732 39.04 152.198 38.72C151.678 38.3867 151.272 37.9333 150.978 37.36C150.685 36.7733 150.538 36.1067 150.538 35.36V29.52C150.538 29.1733 150.652 28.8867 150.878 28.66C151.105 28.42 151.392 28.3 151.738 28.3C152.085 28.3 152.372 28.42 152.598 28.66C152.825 28.8867 152.938 29.1733 152.938 29.52V34.64C152.938 35.5067 153.125 36.12 153.498 36.48C153.885 36.8267 154.418 37 155.098 37C155.565 37 155.958 36.9133 156.278 36.74C156.598 36.5533 156.845 36.2867 157.018 35.94C157.192 35.58 157.278 35.1467 157.278 34.64V29.52C157.278 29.1733 157.392 28.8867 157.618 28.66C157.845 28.42 158.132 28.3 158.478 28.3Z"
              fill="#1D1D1D"/>
        <path d="M98.68 52.6376C98.808 52.7229 98.8827 52.8349 98.904 52.9736C98.9253 53.1016 98.8933 53.2296 98.808 53.3576C98.7333 53.4536 98.6373 53.5069 98.52 53.5176C98.4027 53.5283 98.2907 53.5069 98.184 53.4536C97.7787 53.1869 97.3413 52.9789 96.872 52.8296C96.4133 52.6803 95.9173 52.6056 95.384 52.6056C94.7333 52.6056 94.1253 52.7229 93.56 52.9576C93.0053 53.1816 92.52 53.5123 92.104 53.9496C91.688 54.3763 91.3627 54.8829 91.128 55.4696C90.904 56.0563 90.792 56.7016 90.792 57.4056C90.792 58.1309 90.9093 58.7923 91.144 59.3896C91.3787 59.9763 91.704 60.4829 92.12 60.9096C92.5467 61.3363 93.0373 61.6616 93.592 61.8856C94.1467 62.1096 94.744 62.2216 95.384 62.2216C95.9067 62.2216 96.3973 62.1469 96.856 61.9976C97.3253 61.8483 97.7627 61.6456 98.168 61.3896C98.2747 61.3256 98.3867 61.3043 98.504 61.3256C98.632 61.3363 98.7333 61.3949 98.808 61.5016C98.904 61.6189 98.936 61.7469 98.904 61.8856C98.8827 62.0136 98.8133 62.1149 98.696 62.1896C98.4293 62.3603 98.1147 62.5203 97.752 62.6696C97.3893 62.8189 97.0053 62.9363 96.6 63.0216C96.1947 63.1176 95.7893 63.1656 95.384 63.1656C94.616 63.1656 93.896 63.0269 93.224 62.7496C92.552 62.4723 91.9547 62.0829 91.432 61.5816C90.9093 61.0696 90.4987 60.4616 90.2 59.7576C89.912 59.0536 89.768 58.2696 89.768 57.4056C89.768 56.5736 89.912 55.8109 90.2 55.1176C90.488 54.4136 90.888 53.8056 91.4 53.2936C91.912 52.7816 92.5093 52.3816 93.192 52.0936C93.8747 51.8056 94.6053 51.6616 95.384 51.6616C95.992 51.6616 96.5787 51.7469 97.144 51.9176C97.7093 52.0883 98.2213 52.3283 98.68 52.6376ZM101.357 63.0056C101.208 63.0056 101.09 62.9576 101.005 62.8616C100.92 62.7656 100.877 62.6536 100.877 62.5256V55.3576C100.877 55.2296 100.92 55.1176 101.005 55.0216C101.101 54.9256 101.218 54.8776 101.357 54.8776C101.496 54.8776 101.608 54.9256 101.693 55.0216C101.789 55.1176 101.837 55.2296 101.837 55.3576V57.7576L101.597 57.8056C101.629 57.4323 101.72 57.0643 101.869 56.7016C102.029 56.3283 102.242 55.9869 102.509 55.6776C102.776 55.3683 103.09 55.1176 103.453 54.9256C103.826 54.7336 104.242 54.6376 104.701 54.6376C104.893 54.6376 105.08 54.6803 105.261 54.7656C105.442 54.8403 105.533 54.9683 105.533 55.1496C105.533 55.3096 105.49 55.4323 105.405 55.5176C105.32 55.6029 105.218 55.6456 105.101 55.6456C105.005 55.6456 104.898 55.6189 104.781 55.5656C104.674 55.5123 104.53 55.4856 104.349 55.4856C104.05 55.4856 103.752 55.5763 103.453 55.7576C103.154 55.9283 102.882 56.1629 102.637 56.4616C102.392 56.7603 102.194 57.0963 102.045 57.4696C101.906 57.8323 101.837 58.2003 101.837 58.5736V62.5256C101.837 62.6536 101.789 62.7656 101.693 62.8616C101.597 62.9576 101.485 63.0056 101.357 63.0056ZM110.53 63.1656C109.709 63.1656 108.983 62.9896 108.354 62.6376C107.725 62.2856 107.234 61.7949 106.882 61.1656C106.53 60.5363 106.354 59.8003 106.354 58.9576C106.354 58.0509 106.53 57.2776 106.882 56.6376C107.245 55.9976 107.709 55.5069 108.274 55.1656C108.85 54.8136 109.458 54.6376 110.098 54.6376C110.567 54.6376 111.021 54.7229 111.458 54.8936C111.906 55.0536 112.301 55.2989 112.642 55.6296C112.994 55.9496 113.271 56.3443 113.474 56.8136C113.687 57.2829 113.805 57.8269 113.826 58.4456C113.815 58.5736 113.762 58.6856 113.666 58.7816C113.57 58.8669 113.458 58.9096 113.33 58.9096H106.914L106.722 58.0456H113.026L112.818 58.2376V57.9176C112.775 57.4163 112.615 56.9896 112.338 56.6376C112.061 56.2856 111.725 56.0189 111.33 55.8376C110.935 55.6563 110.525 55.5656 110.098 55.5656C109.778 55.5656 109.447 55.6296 109.106 55.7576C108.775 55.8856 108.471 56.0883 108.194 56.3656C107.927 56.6323 107.709 56.9789 107.538 57.4056C107.367 57.8216 107.282 58.3176 107.282 58.8936C107.282 59.5229 107.41 60.0936 107.666 60.6056C107.922 61.1176 108.29 61.5229 108.77 61.8216C109.261 62.1203 109.842 62.2696 110.514 62.2696C110.887 62.2696 111.223 62.2163 111.522 62.1096C111.821 62.0029 112.082 61.8643 112.306 61.6936C112.53 61.5123 112.717 61.3256 112.866 61.1336C112.983 61.0376 113.101 60.9896 113.218 60.9896C113.325 60.9896 113.415 61.0323 113.49 61.1176C113.575 61.2029 113.618 61.2989 113.618 61.4056C113.618 61.5336 113.565 61.6456 113.458 61.7416C113.138 62.1256 112.722 62.4616 112.21 62.7496C111.698 63.0269 111.138 63.1656 110.53 63.1656ZM122.807 54.8296C122.946 54.8296 123.058 54.8776 123.143 54.9736C123.239 55.0696 123.287 55.1869 123.287 55.3256V62.5256C123.287 62.6536 123.239 62.7656 123.143 62.8616C123.047 62.9576 122.935 63.0056 122.807 63.0056C122.669 63.0056 122.551 62.9576 122.455 62.8616C122.37 62.7656 122.327 62.6536 122.327 62.5256V60.6216L122.599 60.4936C122.599 60.7923 122.514 61.0963 122.343 61.4056C122.183 61.7149 121.959 62.0029 121.671 62.2696C121.383 62.5363 121.042 62.7549 120.647 62.9256C120.263 63.0856 119.847 63.1656 119.399 63.1656C118.674 63.1656 118.023 62.9789 117.447 62.6056C116.882 62.2323 116.434 61.7203 116.103 61.0696C115.783 60.4189 115.623 59.6883 115.623 58.8776C115.623 58.0456 115.789 57.3149 116.119 56.6856C116.45 56.0456 116.898 55.5443 117.463 55.1816C118.029 54.8189 118.669 54.6376 119.383 54.6376C119.842 54.6376 120.269 54.7176 120.663 54.8776C121.069 55.0376 121.421 55.2563 121.719 55.5336C122.018 55.8109 122.247 56.1309 122.407 56.4936C122.578 56.8456 122.663 57.2136 122.663 57.5976L122.327 57.3576V55.3256C122.327 55.1869 122.37 55.0696 122.455 54.9736C122.551 54.8776 122.669 54.8296 122.807 54.8296ZM119.479 62.2696C120.045 62.2696 120.546 62.1256 120.983 61.8376C121.421 61.5389 121.762 61.1336 122.007 60.6216C122.263 60.0989 122.391 59.5176 122.391 58.8776C122.391 58.2483 122.263 57.6829 122.007 57.1816C121.762 56.6803 121.421 56.2803 120.983 55.9816C120.546 55.6829 120.045 55.5336 119.479 55.5336C118.925 55.5336 118.423 55.6776 117.975 55.9656C117.538 56.2536 117.191 56.6483 116.935 57.1496C116.69 57.6509 116.567 58.2269 116.567 58.8776C116.567 59.5176 116.69 60.0989 116.935 60.6216C117.191 61.1336 117.538 61.5389 117.975 61.8376C118.413 62.1256 118.914 62.2696 119.479 62.2696ZM125.438 54.8616H129.166C129.294 54.8616 129.401 54.9096 129.486 55.0056C129.572 55.0909 129.614 55.1976 129.614 55.3256C129.614 55.4429 129.572 55.5443 129.486 55.6296C129.401 55.7149 129.294 55.7576 129.166 55.7576H125.438C125.31 55.7576 125.198 55.7149 125.102 55.6296C125.017 55.5336 124.974 55.4269 124.974 55.3096C124.974 55.1816 125.017 55.0749 125.102 54.9896C125.198 54.9043 125.31 54.8616 125.438 54.8616ZM127.086 52.6056C127.225 52.6056 127.337 52.6536 127.422 52.7496C127.518 52.8456 127.566 52.9576 127.566 53.0856V61.1176C127.566 61.4163 127.604 61.6403 127.678 61.7896C127.764 61.9389 127.87 62.0403 127.998 62.0936C128.126 62.1363 128.254 62.1576 128.382 62.1576C128.468 62.1576 128.542 62.1469 128.606 62.1256C128.681 62.0936 128.761 62.0776 128.846 62.0776C128.942 62.0776 129.022 62.1149 129.086 62.1896C129.161 62.2643 129.198 62.3603 129.198 62.4776C129.198 62.6269 129.113 62.7549 128.942 62.8616C128.772 62.9576 128.569 63.0056 128.334 63.0056C128.238 63.0056 128.094 63.0003 127.902 62.9896C127.71 62.9683 127.513 62.9096 127.31 62.8136C127.108 62.7069 126.937 62.5256 126.798 62.2696C126.67 62.0136 126.606 61.6456 126.606 61.1656V53.0856C126.606 52.9576 126.649 52.8456 126.734 52.7496C126.83 52.6536 126.948 52.6056 127.086 52.6056ZM132.476 62.5256C132.476 62.6536 132.428 62.7656 132.332 62.8616C132.236 62.9576 132.124 63.0056 131.996 63.0056C131.858 63.0056 131.74 62.9576 131.644 62.8616C131.559 62.7656 131.516 62.6536 131.516 62.5256V55.1656C131.516 55.0376 131.559 54.9256 131.644 54.8296C131.74 54.7336 131.858 54.6856 131.996 54.6856C132.135 54.6856 132.247 54.7336 132.332 54.8296C132.428 54.9256 132.476 55.0376 132.476 55.1656V62.5256ZM131.996 53.6136C131.772 53.6136 131.602 53.5656 131.484 53.4696C131.378 53.3629 131.324 53.2136 131.324 53.0216V52.8616C131.324 52.6696 131.383 52.5256 131.5 52.4296C131.628 52.3229 131.799 52.2696 132.012 52.2696C132.215 52.2696 132.37 52.3229 132.476 52.4296C132.594 52.5256 132.652 52.6696 132.652 52.8616V53.0216C132.652 53.2136 132.594 53.3629 132.476 53.4696C132.37 53.5656 132.21 53.6136 131.996 53.6136ZM134.938 54.6536C135.024 54.6536 135.109 54.6803 135.194 54.7336C135.28 54.7869 135.344 54.8669 135.386 54.9736L138.186 61.6296L137.978 61.7576L140.842 54.9736C140.928 54.7603 141.082 54.6589 141.306 54.6696C141.413 54.6696 141.514 54.7069 141.61 54.7816C141.706 54.8456 141.754 54.9416 141.754 55.0696C141.754 55.1336 141.744 55.1869 141.722 55.2296C141.712 55.2616 141.701 55.2989 141.69 55.3416L138.554 62.7016C138.469 62.8936 138.325 62.9949 138.122 63.0056C138.026 63.0163 137.93 62.9949 137.834 62.9416C137.749 62.8776 137.685 62.7976 137.642 62.7016L134.49 55.3416C134.48 55.3203 134.469 55.2883 134.458 55.2456C134.448 55.2029 134.442 55.1603 134.442 55.1176C134.442 55.0003 134.485 54.8936 134.57 54.7976C134.656 54.7016 134.778 54.6536 134.938 54.6536ZM147.377 63.1656C146.556 63.1656 145.83 62.9896 145.201 62.6376C144.572 62.2856 144.081 61.7949 143.729 61.1656C143.377 60.5363 143.201 59.8003 143.201 58.9576C143.201 58.0509 143.377 57.2776 143.729 56.6376C144.092 55.9976 144.556 55.5069 145.121 55.1656C145.697 54.8136 146.305 54.6376 146.945 54.6376C147.414 54.6376 147.868 54.7229 148.305 54.8936C148.753 55.0536 149.148 55.2989 149.489 55.6296C149.841 55.9496 150.118 56.3443 150.321 56.8136C150.534 57.2829 150.652 57.8269 150.673 58.4456C150.662 58.5736 150.609 58.6856 150.513 58.7816C150.417 58.8669 150.305 58.9096 150.177 58.9096H143.761L143.569 58.0456H149.873L149.665 58.2376V57.9176C149.622 57.4163 149.462 56.9896 149.185 56.6376C148.908 56.2856 148.572 56.0189 148.177 55.8376C147.782 55.6563 147.372 55.5656 146.945 55.5656C146.625 55.5656 146.294 55.6296 145.953 55.7576C145.622 55.8856 145.318 56.0883 145.041 56.3656C144.774 56.6323 144.556 56.9789 144.385 57.4056C144.214 57.8216 144.129 58.3176 144.129 58.8936C144.129 59.5229 144.257 60.0936 144.513 60.6056C144.769 61.1176 145.137 61.5229 145.617 61.8216C146.108 62.1203 146.689 62.2696 147.361 62.2696C147.734 62.2696 148.07 62.2163 148.369 62.1096C148.668 62.0029 148.929 61.8643 149.153 61.6936C149.377 61.5123 149.564 61.3256 149.713 61.1336C149.83 61.0376 149.948 60.9896 150.065 60.9896C150.172 60.9896 150.262 61.0323 150.337 61.1176C150.422 61.2029 150.465 61.2989 150.465 61.4056C150.465 61.5336 150.412 61.6456 150.305 61.7416C149.985 62.1256 149.569 62.4616 149.057 62.7496C148.545 63.0269 147.985 63.1656 147.377 63.1656Z"
              fill="#1D1D1D"/>
    </symbol>

    <symbol id="facebook" xmlns="http://www.w3.org/2000/svg" viewBox="0 0 36 36">
        <circle cx="18" cy="18.0037" r="18"/>
        <g clip-path="url(#clip0_10330_92)">
            <path d="M22.5016 9.00366H19.8016C18.6081 9.00366 17.4635 9.47777 16.6196 10.3217C15.7757 11.1656 15.3016 12.3102 15.3016 13.5037V16.2037H12.6016V19.8037H15.3016V27.0037H18.9016V19.8037H21.6016L22.5016 16.2037H18.9016V13.5037C18.9016 13.265 18.9964 13.036 19.1652 12.8673C19.3339 12.6985 19.5629 12.6037 19.8016 12.6037H22.5016V9.00366Z"
                  stroke="currentColor" stroke-width="2" stroke-linecap="round" stroke-linejoin="round"/>
        </g>
        <defs>
            <clipPath id="clip0_10330_92">
                <rect width="21.6" height="21.6" transform="translate(6.30078 7.20386)"/>
            </clipPath>
        </defs>
    </symbol>

    <symbol id="instagram" xmlns="http://www.w3.org/2000/svg" viewBox="0 0 36 36">
        <ellipse cx="18" cy="18.0036" rx="18" ry="18.0036"/>
        <g clip-path="url(#clip0_10331_93)">
            <path d="M22.5 8.12256H13.5C11.0147 8.12256 9 10.1373 9 12.6226V21.6226C9 24.1078 11.0147 26.1226 13.5 26.1226H22.5C24.9853 26.1226 27 24.1078 27 21.6226V12.6226C27 10.1373 24.9853 8.12256 22.5 8.12256Z"
                  stroke="currentColor" stroke-width="2" stroke-linecap="round" stroke-linejoin="round"/>
            <path d="M21.5986 16.5558C21.7096 17.3049 21.5817 18.0698 21.2329 18.7419C20.8842 19.4141 20.3324 19.9591 19.656 20.2995C18.9797 20.64 18.2132 20.7585 17.4656 20.6382C16.718 20.5179 16.0273 20.1649 15.4919 19.6295C14.9565 19.094 14.6035 18.4034 14.4832 17.6558C14.3629 16.9082 14.4814 16.1417 14.8219 15.4654C15.1623 14.789 15.7073 14.2372 16.3795 13.8884C17.0516 13.5397 17.8165 13.4118 18.5656 13.5228C19.3296 13.6361 20.0369 13.9921 20.5831 14.5383C21.1292 15.0845 21.4853 15.7918 21.5986 16.5558Z"
                  stroke="currentColor" stroke-width="2" stroke-linecap="round" stroke-linejoin="round"/>
            <path d="M22.9492 12.1729H22.9582" stroke="currentColor" stroke-width="2" stroke-linecap="round"
                  stroke-linejoin="round"/>
        </g>
        <defs>
            <clipPath id="clip0_10331_93">
                <rect width="21.6" height="21.6" transform="translate(7.19922 6.32275)"/>
            </clipPath>
        </defs>
    </symbol>

    <symbol id="linkedin" xmlns="http://www.w3.org/2000/svg" viewBox="0 0 36 36">
        <ellipse cx="18" cy="18.0036" rx="18" ry="18.0036"/>
        <path d="M21.5992 13.5227C23.0314 13.5227 24.4049 14.0916 25.4176 15.1043C26.4303 16.117 26.9992 17.4905 26.9992 18.9227V25.2227H23.3992V18.9227C23.3992 18.4453 23.2096 17.9875 22.872 17.6499C22.5344 17.3123 22.0766 17.1227 21.5992 17.1227C21.1218 17.1227 20.664 17.3123 20.3264 17.6499C19.9889 17.9875 19.7992 18.4453 19.7992 18.9227V25.2227H16.1992V18.9227C16.1992 17.4905 16.7681 16.117 17.7808 15.1043C18.7935 14.0916 20.167 13.5227 21.5992 13.5227V13.5227Z"
              stroke="currentColor" stroke-width="2" stroke-linecap="round" stroke-linejoin="round"/>
        <path d="M12.6 14.4229H9V25.2229H12.6V14.4229Z" stroke="currentColor" stroke-width="2" stroke-linecap="round"
              stroke-linejoin="round"/>
        <path d="M10.8 11.7226C11.7941 11.7226 12.6 10.9167 12.6 9.92256C12.6 8.92845 11.7941 8.12256 10.8 8.12256C9.80589 8.12256 9 8.92845 9 9.92256C9 10.9167 9.80589 11.7226 10.8 11.7226Z"
              stroke="currentColor" stroke-width="2" stroke-linecap="round" stroke-linejoin="round"/>
    </symbol>

    <symbol id="g-mail" xmlns="http://www.w3.org/2000/svg" viewBox="0 0 36 36">
        <ellipse cx="18" cy="18.0036" rx="18" ry="18.0036"/>
        <path d="M10.8 9.92285H25.2C26.19 9.92285 27 10.7329 27 11.7229V22.5229C27 23.5129 26.19 24.3229 25.2 24.3229H10.8C9.81 24.3229 9 23.5129 9 22.5229V11.7229C9 10.7329 9.81 9.92285 10.8 9.92285Z"
              stroke="currentColor" stroke-width="2" stroke-linecap="round" stroke-linejoin="round"/>
        <path d="M27 11.7227L18 18.0227L9 11.7227" stroke="currentColor" stroke-width="2" stroke-linecap="round"
              stroke-linejoin="round"/>
    </symbol>

    <symbol id="twitter" xmlns="http://www.w3.org/2000/svg" viewBox="0 0 36 36">
        <ellipse cx="18" cy="18.0036" rx="18" ry="18.0036"/>
        <g clip-path="url(#clip0_10331_96)">
            <path d="M27.8977 9.02272C27.0358 9.63065 26.0816 10.0956 25.0717 10.3997C24.5296 9.77648 23.8093 9.33474 23.008 9.13426C22.2067 8.93377 21.3632 8.9842 20.5915 9.27873C19.8199 9.57326 19.1573 10.0977 18.6933 10.7811C18.2294 11.4645 17.9866 12.2738 17.9977 13.0997V13.9997C16.416 14.0407 14.8488 13.69 13.4356 12.9786C12.0223 12.2673 10.8069 11.2175 9.89766 9.92272C9.89766 9.92272 6.29766 18.0227 14.3977 21.6227C12.5441 22.8809 10.3361 23.5118 8.09766 23.4227C16.1977 27.9227 26.0977 23.4227 26.0977 13.0727C26.0968 12.822 26.0727 12.572 26.0257 12.3257C26.9442 11.4199 27.5924 10.2762 27.8977 9.02272V9.02272Z"
                  stroke="currentColor" stroke-width="2" stroke-linecap="round" stroke-linejoin="round"/>
        </g>
        <defs>
            <clipPath id="clip0_10331_96">
                <rect width="21.6" height="21.6" transform="translate(7.19922 6.32275)"/>
            </clipPath>
        </defs>
    </symbol>

    <symbol id="monitor" fill="transparent" xmlns="http://www.w3.org/2000/svg" viewBox="0 0 42 42">
        <path d="M35 5.25H7C5.067 5.25 3.5 6.817 3.5 8.75V26.25C3.5 28.183 5.067 29.75 7 29.75H35C36.933 29.75 38.5 28.183 38.5 26.25V8.75C38.5 6.817 36.933 5.25 35 5.25Z"
              stroke="white" stroke-width="3" stroke-linecap="round" stroke-linejoin="round"/>
        <path d="M14 36.75H28" stroke="white" stroke-width="3" stroke-linecap="round" stroke-linejoin="round"/>
        <path d="M21 29.75V36.75" stroke="white" stroke-width="3" stroke-linecap="round" stroke-linejoin="round"/>
    </symbol>


    <symbol fill="transparent" xmlns="http://www.w3.org/2000/svg" viewBox="0 0 42 42" id="gear">
        <g clip-path="url(#clip0_1_1272)">
            <path d="M21 26.25C23.8995 26.25 26.25 23.8995 26.25 21C26.25 18.1005 23.8995 15.75 21 15.75C18.1005 15.75 15.75 18.1005 15.75 21C15.75 23.8995 18.1005 26.25 21 26.25Z"
                  stroke="white" stroke-width="3" stroke-linecap="round" stroke-linejoin="round"/>
            <path d="M33.95 26.25C33.717 26.7778 33.6476 27.3633 33.7505 27.931C33.8534 28.4987 34.1241 29.0226 34.5275 29.435L34.6325 29.54C34.9579 29.8651 35.2161 30.2511 35.3922 30.676C35.5683 31.1009 35.659 31.5563 35.659 32.0163C35.659 32.4762 35.5683 32.9316 35.3922 33.3565C35.2161 33.7814 34.9579 34.1674 34.6325 34.4925C34.3074 34.8179 33.9214 35.0761 33.4965 35.2522C33.0716 35.4283 32.6162 35.519 32.1562 35.519C31.6963 35.519 31.2409 35.4283 30.816 35.2522C30.3911 35.0761 30.0051 34.8179 29.68 34.4925L29.575 34.3875C29.1626 33.9841 28.6387 33.7134 28.071 33.6105C27.5033 33.5076 26.9178 33.577 26.39 33.81C25.8724 34.0318 25.431 34.4002 25.12 34.8697C24.8091 35.3392 24.6422 35.8894 24.64 36.4525V36.75C24.64 37.6783 24.2713 38.5685 23.6149 39.2249C22.9585 39.8813 22.0683 40.25 21.14 40.25C20.2117 40.25 19.3215 39.8813 18.6651 39.2249C18.0087 38.5685 17.64 37.6783 17.64 36.75V36.5925C17.6265 36.0133 17.439 35.4515 17.1019 34.9802C16.7648 34.509 16.2938 34.15 15.75 33.95C15.2222 33.717 14.6367 33.6476 14.069 33.7505C13.5013 33.8534 12.9774 34.1241 12.565 34.5275L12.46 34.6325C12.1349 34.9579 11.7489 35.2161 11.324 35.3922C10.8991 35.5683 10.4437 35.659 9.98375 35.659C9.5238 35.659 9.06835 35.5683 8.64346 35.3922C8.21857 35.2161 7.83256 34.9579 7.5075 34.6325C7.18208 34.3074 6.92393 33.9214 6.74779 33.4965C6.57166 33.0716 6.481 32.6162 6.481 32.1562C6.481 31.6963 6.57166 31.2409 6.74779 30.816C6.92393 30.3911 7.18208 30.0051 7.5075 29.68L7.6125 29.575C8.01594 29.1626 8.28657 28.6387 8.38951 28.071C8.49244 27.5033 8.42295 26.9178 8.19 26.39C7.96816 25.8724 7.59982 25.431 7.13031 25.12C6.66081 24.8091 6.11063 24.6422 5.5475 24.64H5.25C4.32174 24.64 3.4315 24.2713 2.77513 23.6149C2.11875 22.9585 1.75 22.0683 1.75 21.14C1.75 20.2117 2.11875 19.3215 2.77513 18.6651C3.4315 18.0087 4.32174 17.64 5.25 17.64H5.4075C5.98674 17.6265 6.54851 17.439 7.01977 17.1019C7.49104 16.7648 7.85 16.2938 8.05 15.75C8.28295 15.2222 8.35244 14.6367 8.24951 14.069C8.14657 13.5013 7.87594 12.9774 7.4725 12.565L7.3675 12.46C7.04208 12.1349 6.78393 11.7489 6.60779 11.324C6.43166 10.8991 6.341 10.4437 6.341 9.98375C6.341 9.5238 6.43166 9.06835 6.60779 8.64346C6.78393 8.21857 7.04208 7.83256 7.3675 7.5075C7.69256 7.18208 8.07857 6.92393 8.50346 6.74779C8.92835 6.57166 9.3838 6.481 9.84375 6.481C10.3037 6.481 10.7591 6.57166 11.184 6.74779C11.6089 6.92393 11.9949 7.18208 12.32 7.5075L12.425 7.6125C12.8374 8.01594 13.3613 8.28657 13.929 8.38951C14.4967 8.49244 15.0822 8.42295 15.61 8.19H15.75C16.2676 7.96816 16.709 7.59982 17.02 7.13031C17.3309 6.66081 17.4978 6.11063 17.5 5.5475V5.25C17.5 4.32174 17.8687 3.4315 18.5251 2.77513C19.1815 2.11875 20.0717 1.75 21 1.75C21.9283 1.75 22.8185 2.11875 23.4749 2.77513C24.1313 3.4315 24.5 4.32174 24.5 5.25V5.4075C24.5022 5.97063 24.6691 6.52081 24.98 6.99031C25.291 7.45982 25.7324 7.82816 26.25 8.05C26.7778 8.28295 27.3633 8.35244 27.931 8.24951C28.4987 8.14657 29.0226 7.87594 29.435 7.4725L29.54 7.3675C29.8651 7.04208 30.2511 6.78393 30.676 6.60779C31.1009 6.43166 31.5563 6.341 32.0163 6.341C32.4762 6.341 32.9316 6.43166 33.3565 6.60779C33.7814 6.78393 34.1674 7.04208 34.4925 7.3675C34.8179 7.69256 35.0761 8.07857 35.2522 8.50346C35.4283 8.92835 35.519 9.3838 35.519 9.84375C35.519 10.3037 35.4283 10.7591 35.2522 11.184C35.0761 11.6089 34.8179 11.9949 34.4925 12.32L34.3875 12.425C33.9841 12.8374 33.7134 13.3613 33.6105 13.929C33.5076 14.4967 33.577 15.0822 33.81 15.61V15.75C34.0318 16.2676 34.4002 16.709 34.8697 17.02C35.3392 17.3309 35.8894 17.4978 36.4525 17.5H36.75C37.6783 17.5 38.5685 17.8687 39.2249 18.5251C39.8813 19.1815 40.25 20.0717 40.25 21C40.25 21.9283 39.8813 22.8185 39.2249 23.4749C38.5685 24.1313 37.6783 24.5 36.75 24.5H36.5925C36.0294 24.5022 35.4792 24.6691 35.0097 24.98C34.5402 25.291 34.1718 25.7324 33.95 26.25V26.25Z"
                  stroke="white" stroke-width="3" stroke-linecap="round" stroke-linejoin="round"/>
        </g>
        <defs>
            <clipPath id="clip0_1_1272">
                <rect width="42" height="42"/>
            </clipPath>
        </defs>
    </symbol>

    <symbol id="pen" fill="transparent" xmlns="http://www.w3.org/2000/svg" viewBox="0 0 42 42">
        <path d="M21 33.25L33.25 21L38.5 26.25L26.25 38.5L21 33.25Z" stroke="white" stroke-width="3"
              stroke-linecap="round" stroke-linejoin="round"/>
        <path d="M31.5 22.75L28.875 9.625L3.5 3.5L9.625 28.875L22.75 31.5L31.5 22.75Z" stroke="white" stroke-width="3"
              stroke-linecap="round" stroke-linejoin="round"/>
        <path d="M3.5 3.5L16.7755 16.7755" stroke="white" stroke-width="3" stroke-linecap="round"
              stroke-linejoin="round"/>
        <path d="M19.25 22.75C21.183 22.75 22.75 21.183 22.75 19.25C22.75 17.317 21.183 15.75 19.25 15.75C17.317 15.75 15.75 17.317 15.75 19.25C15.75 21.183 17.317 22.75 19.25 22.75Z"
              stroke="white" stroke-width="3" stroke-linecap="round" stroke-linejoin="round"/>
    </symbol>

    <symbol id="tv" fill="transparent" xmlns="http://www.w3.org/2000/svg" viewBox="0 0 42 42">
        <path d="M35 12.25H7C5.067 12.25 3.5 13.817 3.5 15.75V35C3.5 36.933 5.067 38.5 7 38.5H35C36.933 38.5 38.5 36.933 38.5 35V15.75C38.5 13.817 36.933 12.25 35 12.25Z"
              stroke="white" stroke-width="3" stroke-linecap="round" stroke-linejoin="round"/>
        <path d="M29.75 3.5L21 12.25L12.25 3.5" stroke="white" stroke-width="3" stroke-linecap="round"
              stroke-linejoin="round"/>
    </symbol>

    <symbol id="arrow-left" fill="transparent" xmlns="http://www.w3.org/2000/svg" viewBox="0 0 20 24">
        <path d="M11 18L17 12L11 6" stroke="#377DFF" stroke-width="1.5" stroke-linecap="round" stroke-linejoin="round"/>
        <path d="M4 12L15 12" stroke="#377DFF" stroke-width="1.5" stroke-linecap="round" stroke-linejoin="round"/>
        <path d="M17 12H16" stroke="#377DFF" stroke-width="2" stroke-linecap="round" stroke-linejoin="round"/>
    </symbol>

    <symbol id="star" xmlns="http://www.w3.org/2000/svg" viewBox="0 0 16 16">
        <path d="M7.9987 1.33325L10.0587 5.50659L14.6654 6.17992L11.332 9.42659L12.1187 14.0133L7.9987 11.8466L3.8787 14.0133L4.66536 9.42659L1.33203 6.17992L5.9387 5.50659L7.9987 1.33325Z"
              fill="#F8BD38"/>
    </symbol>

    <symbol id="burger-menu" fill="none" xmlns="http://www.w3.org/2000/svg" viewBox="0 0 29 25">
        <path d="M21.0027 12.7014H9.00269" stroke-width="1.7" stroke-linecap="round"
              stroke-linejoin="round"/>
        <path d="M24.0027 5.70142H6.00269" stroke-width="1.7" stroke-linecap="round"
              stroke-linejoin="round"/>
        <path d="M24.0027 19.7014H6.00269" stroke-width="1.7" stroke-linecap="round"
              stroke-linejoin="round"/>
    </symbol>

    <symbol id="video" fill="transparent" xmlns="http://www.w3.org/2000/svg" viewBox="0 0 17 17">
        <path class="border" d="M8.4987 14.8966C12.1806 14.8966 15.1654 11.9118 15.1654 8.2299C15.1654 4.548 12.1806 1.56323 8.4987 1.56323C4.8168 1.56323 1.83203 4.548 1.83203 8.2299C1.83203 11.9118 4.8168 14.8966 8.4987 14.8966Z"
              stroke-linecap="round" stroke-linejoin="round"/>
        <path class="triangle" d="M7.16797 5.56323L11.168 8.2299L7.16797 10.8966V5.56323Z" stroke-linecap="round"
              stroke-linejoin="round"/>
    </symbol>
</svg>